<?xml version="1.0" standalone="no"?>
<!DOCTYPE svg PUBLIC "-//W3C//DTD SVG 20010904//EN"
 "http://www.w3.org/TR/2001/REC-SVG-20010904/DTD/svg10.dtd">
<svg version="1.0" xmlns="http://www.w3.org/2000/svg"
 width="260.000000pt" height="260.000000pt" viewBox="0 0 260.000000 260.000000"
 preserveAspectRatio="xMidYMid meet">
<metadata>
Created by potrace 1.11, written by Peter Selinger 2001-2013
</metadata>
<g transform="translate(0.000000,260.000000) scale(0.100000,-0.100000)"
fill="#000000" stroke="none">
<path d="M815 2576 c-25 -11 -427 -254 -562 -339 -23 -15 -48 -37 -55 -49 -9
-18 -12 -211 -13 -878 0 -470 3 -870 7 -889 4 -19 15 -46 26 -60 16 -22 285
-180 539 -317 113 -61 121 -60 341 66 207 118 184 105 293 169 48 28 90 51 93
51 4 0 19 8 34 19 15 10 212 123 437 252 226 128 422 242 437 253 54 42 57 69
55 436 -2 326 -3 336 -24 365 -11 17 -81 66 -155 111 -73 44 -241 146 -373
226 -132 80 -394 238 -582 352 -413 250 -435 260 -498 232z m455 -1056 c206
-122 381 -228 388 -234 12 -11 -25 -37 -158 -109 -19 -11 -87 -50 -150 -86
-63 -37 -180 -105 -260 -151 -80 -46 -160 -92 -177 -102 l-33 -20 0 244 c0
134 -1 340 -1 458 -1 242 -2 233 9 227 4 -2 176 -104 382 -227z"/>
</g>
</svg>
